<svg width="26" height="26" viewBox="0 0 26 26" fill="none" xmlns="http://www.w3.org/2000/svg">
<g clip-path="url(#clip0_5_22)">
<path d="M0.00730772 2.08887C-0.0573976 1.55525 0.314519 1.07018 0.848144 1.00548C1.38177 0.940771 1.86684 1.31269 1.93154 1.84631L2.51367 6.35776C4.71282 3.09142 8.43193 1.07013 12.4421 1.07013C17.5519 1.07013 22.0957 4.32032 23.7612 9.13903C23.9391 9.64031 23.6642 10.1901 23.1629 10.3679C23.0659 10.4003 22.9527 10.4164 22.8395 10.4164C22.4353 10.4164 22.0633 10.1577 21.9178 9.7696C20.5272 5.72708 16.7111 3.01051 12.4422 3.01051C8.94941 3.01051 5.69921 4.85389 3.88818 7.79687L8.7392 7.2471C9.27282 7.18239 9.75789 7.57051 9.80645 8.10414C9.85495 8.63776 9.48303 9.12283 8.94941 9.17139L1.96389 9.96372C1.93154 9.96372 1.88304 9.96372 1.85069 9.96372C1.36556 9.96372 0.945147 9.60795 0.896645 9.12289L0.00730772 2.08887ZM24.0361 15.0734L17.0506 15.8658C16.5169 15.9305 16.1289 16.3994 16.1935 16.933C16.2582 17.4667 16.7271 17.8547 17.2608 17.7901L21.4812 17.3211C19.8318 20.7977 16.3229 23.0453 12.4259 23.0453C8.04381 23.0453 4.09828 20.1186 2.83703 15.9305C2.67532 15.4131 2.1417 15.122 1.62427 15.2837C1.10685 15.4453 0.815791 15.979 0.977444 16.4964C1.70507 18.9058 3.22509 21.0726 5.23018 22.5925C7.31612 24.161 9.80634 25.0019 12.4259 25.0019C17.2123 25.0019 21.4974 22.156 23.3892 17.8385L24.0684 23.2231C24.1331 23.7083 24.5535 24.064 25.0224 24.064C25.0709 24.064 25.1033 24.064 25.1518 24.064C25.6854 23.9993 26.0573 23.5142 25.9926 22.9806L25.0871 15.9466C25.0386 15.3969 24.5697 15.0249 24.0361 15.0734Z" fill="white"/>
</g>
<defs>
<clipPath id="clip0_5_22">
<rect width="26" height="26" fill="white" transform="matrix(1 0 0 -1 0 26)"/>
</clipPath>
</defs>
</svg>
