<svg width="48" height="48" viewBox="0 0 48 48" fill="none" xmlns="http://www.w3.org/2000/svg">
<path d="M4 24C4 14.572 4 9.858 6.928 6.928C9.86 4 14.572 4 24 4C33.428 4 38.142 4 41.07 6.928C44 9.86 44 14.572 44 24C44 33.428 44 38.142 41.07 41.07C38.144 44 33.428 44 24 44C14.572 44 9.858 44 6.928 41.07C4 38.144 4 33.428 4 24Z" stroke="white" stroke-width="1.5"/>
<path d="M32 20C34.2091 20 36 18.2091 36 16C36 13.7909 34.2091 12 32 12C29.7909 12 28 13.7909 28 16C28 18.2091 29.7909 20 32 20Z" stroke="white" stroke-width="1.5"/>
<path d="M4 25L7.504 21.934C8.38227 21.1661 9.51949 20.7606 10.6854 20.7996C11.8514 20.8386 12.959 21.3192 13.784 22.144L22.364 30.724C23.0298 31.3896 23.9091 31.7991 24.8471 31.8803C25.7851 31.9616 26.7217 31.7093 27.492 31.168L28.09 30.748C29.2012 29.9675 30.5442 29.5871 31.8996 29.6688C33.2551 29.7506 34.5426 30.2897 35.552 31.198L42 37" stroke="white" stroke-width="1.5" stroke-linecap="round"/>
</svg>
